<?xml version="1.0" encoding="UTF-8" standalone="no"?>
<!DOCTYPE svg PUBLIC "-//W3C//DTD SVG 1.1//EN" "http://www.w3.org/Graphics/SVG/1.1/DTD/svg11.dtd">
<svg width="100%" height="100%" viewBox="0 0 512 512" version="1.1" xmlns="http://www.w3.org/2000/svg" xmlns:xlink="http://www.w3.org/1999/xlink" xml:space="preserve" xmlns:serif="http://www.serif.com/" style="fill-rule:evenodd;clip-rule:evenodd;stroke-linejoin:round;stroke-miterlimit:2;">
    <rect id="Artboard3" x="0" y="0" width="512" height="512" style="fill:none;"/>
    <g>
        <path d="M194.758,242.554C196.454,286.423 196.477,446.067 194.758,458.816C190.291,491.942 157.157,484.981 148.933,495.182C143.698,501.675 146.606,511.249 168.452,512L310.357,512C322.872,512 329.786,510.133 329.912,502.284C330.264,480.384 291.169,497.396 276.607,469.894C263.168,437.279 275.149,212.651 270.913,195.91C268.327,185.692 261.686,176.047 251.393,171.34C222.563,155.014 144.689,198.436 139.482,203.906C135.028,208.583 138.722,220.271 143.953,221.484C154.126,223.841 193.782,217.305 194.758,242.554Z"/>
        <path d="M374.274,0.107C320,-1.718 244.325,19.233 233.493,107.547C215.056,20.544 145.602,16.61 144.435,36.519C143.236,56.963 199.95,37.104 224.547,139.354C271.806,139.261 380.208,119.431 374.274,0.107Z"/>
    </g>
</svg>
